<svg width="25" height="25" viewBox="0 0 25 25" fill="none" xmlns="http://www.w3.org/2000/svg">
<path d="M13.3697 21.2385L12.672 20.9633L13.3697 21.2385ZM3.32834 14.9941L4.05897 14.8247L3.32834 14.9941ZM3.32437 9.26416L2.59374 9.09481L3.32437 9.26416ZM22.7031 9.52198L23.4337 9.35262V9.35262L22.7031 9.52198ZM22.7031 14.7191L21.9725 14.5497L22.7031 14.7191ZM9.84227 22.7939L9.54952 23.4844L9.54952 23.4844L9.84227 22.7939ZM10.2818 2.31665L10.455 3.04637V3.04637L10.2818 2.31665ZM15.6859 2.31665L15.5127 3.04637L15.6859 2.31665ZM9.70326 22.7349L9.99601 22.0444H9.99601L9.70326 22.7349ZM16.1343 2.42308L16.3075 1.69336L16.1343 2.42308ZM22.5986 9.07102L21.868 9.24038V9.24038L22.5986 9.07102ZM10.0194 2.37894L9.84617 1.64922V1.64922L10.0194 2.37894ZM10.1926 3.10866L10.455 3.04637L10.1086 1.58693L9.84617 1.64922L10.1926 3.10866ZM15.5127 3.04637L15.9611 3.1528L16.3075 1.69336L15.8591 1.58693L15.5127 3.04637ZM10.135 22.1034L9.99601 22.0444L9.41051 23.4254L9.54952 23.4844L10.135 22.1034ZM21.868 9.24038L21.9725 9.69133L23.4337 9.35262L23.3292 8.90167L21.868 9.24038ZM15.5554 19.8312H14.3067V21.3312H15.5554V19.8312ZM14.3067 19.8312C13.5706 19.8312 12.9341 20.2988 12.672 20.9633L14.0674 21.5137C14.117 21.3879 14.2227 21.3312 14.3067 21.3312V19.8312ZM4.05897 14.8247C3.64943 13.0578 3.64593 11.1983 4.055 9.43351L2.59374 9.09481C2.13254 11.0845 2.13699 13.1758 2.59771 15.1634L4.05897 14.8247ZM21.9725 9.69133C22.3425 11.2877 22.3425 12.9533 21.9725 14.5497L23.4337 14.8884C23.8554 13.0692 23.8554 11.1719 23.4337 9.35262L21.9725 9.69133ZM9.54952 23.4844C11.3433 24.2449 13.3567 23.3155 14.0674 21.5137L12.672 20.9633C12.2501 22.0331 11.1015 22.5131 10.135 22.1034L9.54952 23.4844ZM10.455 3.04637C12.1197 2.65121 13.848 2.65121 15.5127 3.04637L15.8591 1.58693C13.9667 1.13769 12.0011 1.13769 10.1086 1.58693L10.455 3.04637ZM9.99601 22.0444C7.03844 20.7905 4.8157 18.0894 4.05897 14.8247L2.59771 15.1634C3.45741 18.8724 5.98952 21.975 9.41051 23.4254L9.99601 22.0444ZM21.9725 14.5497C21.2496 17.6683 18.5832 19.8312 15.5554 19.8312V21.3312C19.32 21.3312 22.5623 18.6482 23.4337 14.8884L21.9725 14.5497ZM15.9611 3.1528C18.8627 3.84159 21.1609 6.18988 21.868 9.24038L23.3292 8.90167C22.4996 5.32248 19.7892 2.51983 16.3075 1.69336L15.9611 3.1528ZM9.84617 1.64922C6.25061 2.50273 3.45078 5.3973 2.59374 9.09481L4.055 9.43351C4.7895 6.2647 7.17708 3.82449 10.1926 3.10866L9.84617 1.64922Z" fill="url(#paint0_linear)"/>
<path d="M9.11328 8.31757C8.69907 8.31757 8.36328 8.65335 8.36328 9.06757C8.36328 9.48178 8.69907 9.81757 9.11328 9.81757V8.31757ZM16.2094 9.81757C16.6236 9.81757 16.9594 9.48178 16.9594 9.06757C16.9594 8.65335 16.6236 8.31757 16.2094 8.31757V9.81757ZM9.11328 12.3498C8.69907 12.3498 8.36328 12.6855 8.36328 13.0998C8.36328 13.514 8.69907 13.8498 9.11328 13.8498V12.3498ZM13.629 13.8498C14.0432 13.8498 14.379 13.514 14.379 13.0998C14.379 12.6855 14.0432 12.3498 13.629 12.3498V13.8498ZM9.11328 9.81757H16.2094V8.31757H9.11328V9.81757ZM9.11328 13.8498H13.629V12.3498H9.11328V13.8498Z" fill="white"/>
<defs>
<linearGradient id="paint0_linear" x1="13" y1="2" x2="13" y2="23" gradientUnits="userSpaceOnUse">
<stop stop-color="white"/>
<stop offset="0.5" stop-color="white" stop-opacity="0.520833"/>
<stop offset="1" stop-color="white"/>
</linearGradient>
</defs>
</svg>
