<svg width="25" height="25" viewBox="0 0 25 25" fill="none" xmlns="http://www.w3.org/2000/svg">
<path d="M11.174 2.1528L10.9186 1.18597L10.9186 1.18597L11.174 2.1528ZM13.5282 2.1528L13.2727 3.11963H13.2727L13.5282 2.1528ZM11.4294 3.11963C12.0331 2.96012 12.669 2.96012 13.2727 3.11963L13.7836 1.18597C12.845 0.938009 11.8571 0.938009 10.9186 1.18597L11.4294 3.11963ZM17.7022 6.23245C17.7022 3.85856 16.0865 1.79441 13.7836 1.18597L13.2727 3.11963C14.7141 3.50043 15.7022 4.78293 15.7022 6.23245L17.7022 6.23245ZM9 6.23245C9 4.78293 9.98809 3.50043 11.4294 3.11963L10.9186 1.18597C8.61563 1.79441 7 3.85855 7 6.23245H9Z" fill="white" fill-opacity="0.37"/>
<path d="M8.33325 10.9375V14.5833" stroke="white" stroke-opacity="0.37" stroke-width="2" stroke-linecap="round"/>
<path d="M16.6667 10.9375V14.5833" stroke="white" stroke-opacity="0.37" stroke-width="2" stroke-linecap="round"/>
<path fill-rule="evenodd" clip-rule="evenodd" d="M15.6722 7.8157C13.5772 7.41178 11.4228 7.41178 9.32783 7.8157L8.20954 8.03131C6.63608 8.33469 5.34628 9.39798 4.75313 10.8282C5.60215 11.1166 6.46363 11.3562 7.33335 11.547V13.5908C6.29007 13.3802 5.25682 13.1052 4.23973 12.7657C4.02725 14.1106 4.1102 15.4949 4.48609 16.8121C5.02025 18.6839 6.58528 20.1209 8.53006 20.4959C11.1518 21.0014 13.8482 21.0014 16.4699 20.4959C18.4147 20.1209 19.9798 18.6839 20.5139 16.8121C20.8898 15.4949 20.9728 14.1106 20.7603 12.7657C19.7432 13.1052 18.71 13.3802 17.6667 13.5908V11.547C18.5364 11.3562 19.3979 11.1166 20.2469 10.8282C19.6537 9.39798 18.3639 8.33469 16.7905 8.03131L15.6722 7.8157ZM15.6667 11.8981C13.5652 12.1764 11.4349 12.1764 9.33335 11.8981V13.9142C11.4363 14.171 13.5637 14.171 15.6667 13.9142V11.8981ZM8.94919 5.85187C11.2942 5.39972 13.7058 5.39972 16.0508 5.85187L17.1691 6.06748C19.6493 6.54568 21.6548 8.36284 22.3439 10.7779L22.4408 11.1173C23.0225 13.1558 23.0181 15.325 22.4371 17.3609C21.6945 19.9631 19.5284 21.943 16.8486 22.4597C13.9767 23.0135 11.0233 23.0135 8.15141 22.4597C5.47159 21.943 3.30547 19.9631 2.56287 17.3609C1.98186 15.325 1.97746 13.1558 2.5592 11.1173L2.65607 10.7779C3.34526 8.36284 5.35071 6.54568 7.8309 6.06748L8.94919 5.85187Z" fill="url(#paint0_linear)"/>
<defs>
<linearGradient id="paint0_linear" x1="12.5" y1="8.40647" x2="12.5" y2="22.875" gradientUnits="userSpaceOnUse">
<stop stop-color="white"/>
<stop offset="1" stop-color="white" stop-opacity="0.42"/>
</linearGradient>
</defs>
</svg>
