<svg width="25" height="25" viewBox="0 0 25 25" fill="none" xmlns="http://www.w3.org/2000/svg">
<path d="M16.0578 2.41169C19.2982 3.17177 21.8282 5.70184 22.5883 8.94217C23.1372 11.2823 23.1372 13.7177 22.5883 16.0578C21.8282 19.2982 19.2982 21.8282 16.0578 22.5883C13.7177 23.1372 11.2823 23.1372 8.94217 22.5883C5.70184 21.8282 3.17177 19.2982 2.41169 16.0578C1.86277 13.7177 1.86277 11.2823 2.41169 8.94218C3.17176 5.70185 5.70184 3.17177 8.94216 2.41169C11.2823 1.86277 13.7177 1.86277 16.0578 2.41169Z" stroke="url(#paint0_linear)" stroke-width="1.5"/>
<path d="M11.75 16.141C11.75 16.5552 12.0857 16.891 12.5 16.891C12.9142 16.891 13.25 16.5552 13.25 16.141H11.75ZM8.85901 8.10907C8.4448 8.10907 8.10901 8.44486 8.10901 8.85907C8.10901 9.27328 8.4448 9.60907 8.85901 9.60907V8.10907ZM16.1409 9.60907C16.5551 9.60907 16.8909 9.27328 16.8909 8.85907C16.8909 8.44486 16.5551 8.10907 16.1409 8.10907V9.60907ZM11.75 8.85907V16.141H13.25V8.85907H11.75ZM12.5 8.10907H8.85901V9.60907H12.5V8.10907ZM12.5 9.60907H16.1409V8.10907H12.5V9.60907Z" fill="white"/>
<defs>
<linearGradient id="paint0_linear" x1="12.5" y1="2" x2="12.5" y2="23" gradientUnits="userSpaceOnUse">
<stop stop-color="white"/>
<stop offset="0.5" stop-color="white" stop-opacity="0.520833"/>
<stop offset="1" stop-color="white"/>
</linearGradient>
</defs>
</svg>
