<svg width="20" height="20" viewBox="0 0 20 20" fill="none" xmlns="http://www.w3.org/2000/svg">
<path d="M2.74751 4.3615C2.93536 3.56066 3.56066 2.93536 4.3615 2.74751V2.74751C5.05553 2.58471 5.77781 2.58471 6.47184 2.74751V2.74751C7.27267 2.93536 7.89797 3.56066 8.08582 4.3615V4.3615C8.24862 5.05553 8.24862 5.77781 8.08583 6.47183V6.47183C7.89797 7.27267 7.27267 7.89797 6.47183 8.08583V8.08583C5.77781 8.24862 5.05553 8.24862 4.3615 8.08582V8.08582C3.56066 7.89797 2.93536 7.27267 2.74751 6.47184V6.47184C2.58471 5.77781 2.58471 5.05553 2.74751 4.3615V4.3615Z" stroke="url(#paint0_linear)" stroke-width="1.5"/>
<path d="M2.74751 13.5281C2.93536 12.7273 3.56066 12.102 4.3615 11.9141V11.9141C5.05553 11.7513 5.77781 11.7513 6.47184 11.9141V11.9141C7.27267 12.102 7.89797 12.7273 8.08582 13.5281V13.5281C8.24862 14.2222 8.24862 14.9444 8.08582 15.6385V15.6385C7.89797 16.4393 7.27267 17.0646 6.47183 17.2525V17.2525C5.77781 17.4152 5.05553 17.4152 4.3615 17.2525V17.2525C3.56066 17.0646 2.93536 16.4393 2.74751 15.6385V15.6385C2.58471 14.9444 2.58471 14.2222 2.74751 13.5281V13.5281Z" stroke="white" stroke-width="1.5"/>
<path d="M11.9142 4.3615C12.102 3.56066 12.7273 2.93536 13.5282 2.74751V2.74751C14.2222 2.58471 14.9445 2.58471 15.6385 2.74751V2.74751C16.4394 2.93536 17.0647 3.56066 17.2525 4.3615V4.3615C17.4153 5.05553 17.4153 5.77781 17.2525 6.47183V6.47183C17.0647 7.27267 16.4394 7.89797 15.6385 8.08583V8.08583C14.9445 8.24862 14.2222 8.24862 13.5282 8.08582V8.08582C12.7273 7.89797 12.102 7.27267 11.9142 6.47184V6.47184C11.7514 5.77781 11.7514 5.05552 11.9142 4.3615V4.3615Z" stroke="url(#paint1_linear)" stroke-width="1.5"/>
<path d="M11.9142 13.5281C12.102 12.7273 12.7273 12.102 13.5282 11.9141V11.9141C14.2222 11.7513 14.9445 11.7513 15.6385 11.9141V11.9141C16.4394 12.102 17.0647 12.7273 17.2525 13.5281V13.5281C17.4153 14.2222 17.4153 14.9444 17.2525 15.6385V15.6385C17.0647 16.4393 16.4394 17.0646 15.6385 17.2525V17.2525C14.9445 17.4152 14.2222 17.4152 13.5282 17.2525V17.2525C12.7273 17.0646 12.102 16.4393 11.9142 15.6385V15.6385C11.7514 14.9444 11.7514 14.2222 11.9142 13.5281V13.5281Z" stroke="url(#paint2_linear)" stroke-width="1.5"/>
<defs>
<linearGradient id="paint0_linear" x1="5.41667" y1="2.5" x2="5.41667" y2="8.33333" gradientUnits="userSpaceOnUse">
<stop stop-color="white"/>
<stop offset="0.5" stop-color="white" stop-opacity="0.520833"/>
<stop offset="1" stop-color="white"/>
</linearGradient>
<linearGradient id="paint1_linear" x1="14.5834" y1="2.5" x2="14.5834" y2="8.33333" gradientUnits="userSpaceOnUse">
<stop stop-color="white"/>
<stop offset="0.5" stop-color="white" stop-opacity="0.520833"/>
<stop offset="1" stop-color="white"/>
</linearGradient>
<linearGradient id="paint2_linear" x1="14.5834" y1="11.6666" x2="14.5834" y2="17.5" gradientUnits="userSpaceOnUse">
<stop stop-color="white"/>
<stop offset="0.5" stop-color="white" stop-opacity="0.520833"/>
<stop offset="1" stop-color="white"/>
</linearGradient>
</defs>
</svg>
