<svg width="25" height="25" viewBox="0 0 25 25" fill="none" xmlns="http://www.w3.org/2000/svg">
<path d="M16.0578 2.41169C19.2982 3.17177 21.8282 5.70184 22.5883 8.94217C23.1372 11.2823 23.1372 13.7177 22.5883 16.0578C21.8282 19.2982 19.2982 21.8282 16.0578 22.5883C13.7177 23.1372 11.2823 23.1372 8.94217 22.5883C5.70184 21.8282 3.17177 19.2982 2.41169 16.0578C1.86277 13.7177 1.86277 11.2823 2.41169 8.94218C3.17176 5.70185 5.70184 3.17177 8.94216 2.41169C11.2823 1.86277 13.7177 1.86277 16.0578 2.41169Z" stroke="url(#paint0_linear)" stroke-width="1.5"/>
<path d="M6.23669 12.7443V12.5665C6.2021 12.5589 6.16728 12.552 6.13224 12.5457C6.16253 12.6143 6.19759 12.6808 6.23669 12.7443Z" fill="url(#paint1_linear)" stroke="url(#paint2_linear)" stroke-width="7"/>
<defs>
<linearGradient id="paint0_linear" x1="12.5" y1="2" x2="12.5" y2="23" gradientUnits="userSpaceOnUse">
<stop stop-color="white"/>
<stop offset="0.5" stop-color="white" stop-opacity="0.520833"/>
<stop offset="1" stop-color="white"/>
</linearGradient>
<linearGradient id="paint1_linear" x1="12.5" y1="10" x2="12.5" y2="16" gradientUnits="userSpaceOnUse">
<stop stop-color="white"/>
<stop offset="0.5" stop-color="white" stop-opacity="0.520833"/>
<stop offset="1" stop-color="white"/>
</linearGradient>
<linearGradient id="paint2_linear" x1="12.5" y1="10" x2="12.5" y2="16" gradientUnits="userSpaceOnUse">
<stop stop-color="white"/>
<stop offset="0.5" stop-color="white" stop-opacity="0.520833"/>
<stop offset="1" stop-color="white"/>
</linearGradient>
</defs>
</svg>
