<svg width="25" height="25" viewBox="0 0 25 25" fill="none" xmlns="http://www.w3.org/2000/svg">
<path d="M9.48105 7.19712L8.78688 6.91316L9.48105 7.19712ZM10.4111 6.90439C10.5679 6.52101 10.3843 6.08309 10.0009 5.92626C9.61753 5.76944 9.17961 5.95309 9.02279 6.33647L10.4111 6.90439ZM16.5187 7.19712L15.8245 7.48108V7.48108L16.5187 7.19712ZM16.977 6.33647C16.8201 5.95309 16.3822 5.76944 15.9988 5.92626C15.6155 6.08309 15.4318 6.52101 15.5886 6.90439L16.977 6.33647ZM13.8383 13.0877L13.703 12.35H13.703L13.8383 13.0877ZM13.7082 13.1116L13.8434 13.8493L13.8434 13.8493L13.7082 13.1116ZM12.2916 13.1116L12.4268 12.3739L12.4268 12.3739L12.2916 13.1116ZM12.1615 13.0877L12.0262 13.8254H12.0262L12.1615 13.0877ZM9.20661 10.1444L8.47182 10.2946L9.20661 10.1444ZM16.7931 10.1444L16.0583 9.99407L16.7931 10.1444ZM22.2191 8.29476L22.9306 8.05777L22.9306 8.05777L22.2191 8.29476ZM22.6386 16.4231L23.3708 16.5853L22.6386 16.4231ZM3.36141 16.4231L4.09366 16.2609L3.36141 16.4231ZM3.78096 8.29475L3.06938 8.05777H3.06938L3.78096 8.29475ZM10.9772 2.19159L11.1179 2.92827H11.1179L10.9772 2.19159ZM15.0229 2.19159L14.8821 2.92827L15.0229 2.19159ZM16.7546 22.5411L16.5737 21.8133L16.7546 22.5411ZM9.24541 22.5411L9.06458 23.269L9.24541 22.5411ZM15.8208 2.34404L15.9615 1.60737L15.8208 2.34404ZM22.0896 7.90597L21.378 8.14296L21.378 8.14296L22.0896 7.90597ZM10.1792 2.34405L10.0385 1.60737L10.1792 2.34405ZM3.91044 7.90595L4.62202 8.14294L3.91044 7.90595ZM10.1752 7.48108L10.4111 6.90439L9.02279 6.33647L8.78688 6.91316L10.1752 7.48108ZM17.2129 6.91316L16.977 6.33647L15.5886 6.90439L15.8245 7.48108L17.2129 6.91316ZM13.703 12.35L13.5729 12.3739L13.8434 13.8493L13.9735 13.8254L13.703 12.35ZM12.4268 12.3739L12.2967 12.35L12.0262 13.8254L12.1563 13.8493L12.4268 12.3739ZM9.9414 9.99407C9.76896 9.15098 9.8508 8.27415 10.1752 7.48108L8.78688 6.91316C8.34962 7.98211 8.24001 9.16127 8.47182 10.2946L9.9414 9.99407ZM17.5279 10.2947C17.7597 9.16127 17.6501 7.98211 17.2129 6.91316L15.8245 7.48108C16.1489 8.27415 16.2308 9.15098 16.0583 9.99407L17.5279 10.2947ZM13.5729 12.3739C13.1938 12.4434 12.8059 12.4434 12.4268 12.3739L12.1563 13.8493C12.7142 13.9516 13.2855 13.9516 13.8434 13.8493L13.5729 12.3739ZM8.47182 10.2946C8.83954 12.0925 10.2382 13.4976 12.0262 13.8254L12.2967 12.35C11.1302 12.1361 10.1905 11.212 9.9414 9.99407L8.47182 10.2946ZM16.0583 9.99407C15.8092 11.212 14.8696 12.1361 13.703 12.35L13.9735 13.8254C15.7615 13.4976 17.1602 12.0925 17.5279 10.2946L16.0583 9.99407ZM10.32 3.08072L11.1179 2.92827L10.8364 1.45492L10.0385 1.60737L10.32 3.08072ZM14.8821 2.92827L15.6801 3.08072L15.9615 1.60737L15.1636 1.45492L14.8821 2.92827ZM4.49253 8.53174L4.62202 8.14294L3.19887 7.66897L3.06938 8.05777L4.49253 8.53174ZM21.378 8.14296L21.5075 8.53174L22.9306 8.05777L22.8012 7.66899L21.378 8.14296ZM21.5075 8.53174C22.3361 11.0198 22.4743 13.6963 21.9063 16.2609L23.3708 16.5853C23.9974 13.7561 23.8451 10.8037 22.9306 8.05777L21.5075 8.53174ZM4.09366 16.2609C3.52565 13.6963 3.66388 11.0198 4.49253 8.53174L3.06938 8.05777C2.15486 10.8037 2.00255 13.7561 2.62915 16.5853L4.09366 16.2609ZM11.1179 2.92827C12.362 2.69058 13.638 2.69058 14.8821 2.92827L15.1636 1.45492C13.7335 1.18169 12.2665 1.18169 10.8364 1.45492L11.1179 2.92827ZM16.5737 21.8133C14.2298 22.3956 11.7702 22.3956 9.42624 21.8133L9.06458 23.269C11.646 23.9103 14.354 23.9103 16.9354 23.269L16.5737 21.8133ZM15.6801 3.08072C18.3198 3.58505 20.5023 5.51361 21.378 8.14296L22.8012 7.66899C21.7588 4.53919 19.1498 2.2165 15.9615 1.60737L15.6801 3.08072ZM10.0385 1.60737C6.85022 2.2165 4.24123 4.53918 3.19887 7.66897L4.62202 8.14294C5.4977 5.51361 7.68023 3.58505 10.32 3.08072L10.0385 1.60737ZM9.42624 21.8133C6.77951 21.1557 4.70227 19.0089 4.09366 16.2609L2.62915 16.5853C3.35756 19.8742 5.85064 22.4705 9.06458 23.269L9.42624 21.8133ZM16.9354 23.269C20.1494 22.4705 22.6424 19.8742 23.3708 16.5853L21.9063 16.2609C21.2977 19.0089 19.2205 21.1557 16.5737 21.8133L16.9354 23.269Z" fill="url(#paint0_linear)"/>
<defs>
<linearGradient id="paint0_linear" x1="13" y1="2" x2="13" y2="23" gradientUnits="userSpaceOnUse">
<stop stop-color="white"/>
<stop offset="0.5" stop-color="white" stop-opacity="0.520833"/>
<stop offset="1" stop-color="white"/>
</linearGradient>
</defs>
</svg>
