<svg width="25" height="25" viewBox="0 0 25 25" fill="none" xmlns="http://www.w3.org/2000/svg">
<path d="M9.76293 3.85087C10.7875 1.38304 14.2126 1.38304 15.2371 3.85087L15.9507 5.5698C16.3703 6.58045 17.2914 7.28107 18.3599 7.40215L20.3513 7.62782C22.8662 7.91282 23.9049 11.0714 22.0682 12.8486L20.3774 14.4847C19.634 15.204 19.3055 16.2634 19.508 17.2886L19.9162 19.3551C20.433 21.971 17.6306 23.946 15.4188 22.5248L14.0833 21.6667C13.1156 21.0449 11.8844 21.0449 10.9167 21.6667L9.58122 22.5248C7.36939 23.946 4.56703 21.971 5.08377 19.3551L5.49201 17.2886C5.69452 16.2634 5.36604 15.204 4.62264 14.4847L2.93183 12.8486C1.09511 11.0714 2.13384 7.91282 4.64873 7.62782L6.64014 7.40215C7.70855 7.28107 8.62974 6.58045 9.04931 5.5698L9.76293 3.85087Z" stroke="url(#paint0_linear)" stroke-width="2" stroke-linecap="round" stroke-linejoin="round"/>
<defs>
<linearGradient id="paint0_linear" x1="12.5" y1="2" x2="12.5" y2="23" gradientUnits="userSpaceOnUse">
<stop stop-color="white"/>
<stop offset="0.5" stop-color="white" stop-opacity="0.520833"/>
<stop offset="1" stop-color="white"/>
</linearGradient>
</defs>
</svg>
