<svg width="25" height="25" viewBox="0 0 25 25" fill="none" xmlns="http://www.w3.org/2000/svg">
<path d="M2.41169 16.0578L1.68151 16.2291L2.41169 16.0578ZM2.41169 8.94217L1.68151 8.77089L2.41169 8.94217ZM22.5883 8.94217L21.8581 9.11345L22.5883 8.94217ZM22.5883 16.0578L21.8581 15.8865L22.5883 16.0578ZM16.0578 22.5883L15.8865 21.8581L16.0578 22.5883ZM8.94217 22.5883L8.7709 23.3185L8.94217 22.5883ZM8.94217 2.41169L8.77089 1.68151L8.94217 2.41169ZM16.0578 2.41169L15.8866 3.14187L16.0578 2.41169ZM3.14187 15.8866C2.61938 13.6591 2.61938 11.3409 3.14187 9.11345L1.68151 8.77089C1.10616 11.2237 1.10616 13.7763 1.68151 16.2291L3.14187 15.8866ZM21.8581 9.11345C22.3806 11.3409 22.3806 13.6591 21.8581 15.8865L23.3185 16.2291C23.8938 13.7763 23.8938 11.2237 23.3185 8.7709L21.8581 9.11345ZM15.8865 21.8581C13.6591 22.3806 11.3409 22.3806 9.11345 21.8581L8.7709 23.3185C11.2237 23.8938 13.7763 23.8938 16.2291 23.3185L15.8865 21.8581ZM9.11345 3.14187C11.3409 2.61938 13.6591 2.61938 15.8866 3.14187L16.2291 1.68151C13.7763 1.10616 11.2237 1.10616 8.77089 1.68151L9.11345 3.14187ZM9.11345 21.8581C6.15044 21.1631 3.8369 18.8496 3.14187 15.8866L1.68151 16.2291C2.50664 19.7468 5.25325 22.4934 8.7709 23.3185L9.11345 21.8581ZM16.2291 23.3185C19.7468 22.4934 22.4934 19.7468 23.3185 16.2291L21.8581 15.8865C21.1631 18.8496 18.8496 21.1631 15.8865 21.8581L16.2291 23.3185ZM15.8866 3.14187C18.8496 3.8369 21.1631 6.15044 21.8581 9.11345L23.3185 8.7709C22.4934 5.25325 19.7468 2.50664 16.2291 1.68151L15.8866 3.14187ZM8.77089 1.68151C5.25325 2.50664 2.50664 5.25324 1.68151 8.77089L3.14187 9.11345C3.8369 6.15044 6.15044 3.8369 9.11345 3.14187L8.77089 1.68151Z" fill="url(#paint0_linear)"/>
<path d="M7.7506 12.8528C7.44271 13.1299 7.41775 13.6041 7.69485 13.912C7.97194 14.2199 8.44616 14.2448 8.75404 13.9677L7.7506 12.8528ZM10.2432 11.6184L10.745 12.1759L10.745 12.1759L10.2432 11.6184ZM12.065 11.8473L12.689 11.4313V11.4313L12.065 11.8473ZM12.9352 13.1527L12.3112 13.5688L12.3112 13.5688L12.9352 13.1527ZM14.757 13.3816L15.2587 13.9391L14.757 13.3816ZM17.2496 12.1473C17.5575 11.8702 17.5824 11.3959 17.3053 11.0881C17.0283 10.7802 16.554 10.7552 16.2462 11.0323L17.2496 12.1473ZM13.7538 14.0021L13.6603 14.7463L13.6603 14.7463L13.7538 14.0021ZM11.2464 10.9979L11.1529 11.7421L11.1529 11.7421L11.2464 10.9979ZM8.75404 13.9677L10.745 12.1759L9.74153 11.061L7.7506 12.8528L8.75404 13.9677ZM11.4409 12.2633L12.3112 13.5688L13.5593 12.7367L12.689 11.4313L11.4409 12.2633ZM15.2587 13.9391L17.2496 12.1473L16.2462 11.0323L14.2552 12.8242L15.2587 13.9391ZM12.3112 13.5688C12.4797 13.8214 12.6489 14.0784 12.8173 14.2673C12.9998 14.472 13.2668 14.6968 13.6603 14.7463L13.8473 13.258C13.9654 13.2728 14.0042 13.3445 13.9368 13.269C13.9021 13.2301 13.8558 13.1707 13.7901 13.0775C13.7247 12.9848 13.6514 12.8749 13.5593 12.7367L12.3112 13.5688ZM14.2552 12.8242C14.1318 12.9353 14.0335 13.0236 13.9473 13.0973C13.8605 13.1713 13.801 13.2174 13.7577 13.2465C13.6738 13.303 13.7291 13.2431 13.8473 13.258L13.6603 14.7463C14.0538 14.7957 14.368 14.6439 14.5955 14.4907C14.8054 14.3494 15.0329 14.1423 15.2587 13.9391L14.2552 12.8242ZM10.745 12.1759C10.8684 12.0648 10.9667 11.9764 11.0529 11.9028C11.1397 11.8287 11.1992 11.7827 11.2425 11.7536C11.3264 11.697 11.2711 11.7569 11.1529 11.7421L11.3399 10.2538C10.9465 10.2044 10.6322 10.3562 10.4047 10.5093C10.1948 10.6507 9.96726 10.8578 9.74153 11.061L10.745 12.1759ZM12.689 11.4313C12.5205 11.1786 12.3513 10.9216 12.1829 10.7328C12.0004 10.5281 11.7334 10.3032 11.3399 10.2538L11.1529 11.7421C11.0348 11.7272 10.996 11.6555 11.0634 11.7311C11.0981 11.77 11.1444 11.8293 11.2101 11.9225C11.2755 12.0152 11.3488 12.1251 11.4409 12.2633L12.689 11.4313Z" fill="white"/>
<defs>
<linearGradient id="paint0_linear" x1="12.5" y1="2" x2="12.5" y2="23" gradientUnits="userSpaceOnUse">
<stop stop-color="white"/>
<stop offset="0.5" stop-color="white" stop-opacity="0.520833"/>
<stop offset="1" stop-color="white"/>
</linearGradient>
</defs>
</svg>
